<?xml version="1.0" standalone="no"?><!DOCTYPE svg PUBLIC "-//W3C//DTD SVG 1.1//EN" "http://www.w3.org/Graphics/SVG/1.1/DTD/svg11.dtd"><svg t="1683374878634" class="icon" viewBox="0 0 1024 1024" version="1.1" xmlns="http://www.w3.org/2000/svg" p-id="8057" xmlns:xlink="http://www.w3.org/1999/xlink" width="200" height="200"><path d="M828.48 854.72a32 32 0 1 1-44.8-45.44A378.24 378.24 0 0 0 896 540.48a384 384 0 0 0-768 0 378.24 378.24 0 0 0 112.32 268.8 32 32 0 0 1 0 45.12 32 32 0 0 1-45.44 0A443.84 443.84 0 0 1 512 96a448 448 0 0 1 448 444.48 441.6 441.6 0 0 1-131.52 314.24z" p-id="8058"></path><path d="M96 608a32 32 0 0 1 0-64h64a32 32 0 0 1 0 64z m768 0a32 32 0 0 1 0-64h64a32 32 0 0 1 0 64zM201.28 278.72a32 32 0 1 1 45.44-45.44l32 32a32 32 0 0 1-45.44 45.44z m544 544a32 32 0 0 1 45.44-45.44l32 32a32 32 0 0 1-45.44 45.44z m32-589.44a32 32 0 1 1 45.44 45.44l-32 32a32 32 0 0 1-45.44-45.44z m-544 544a32 32 0 0 1 45.44 45.44l-32 32a32 32 0 0 1-45.44-45.44zM480 160a32 32 0 0 1 64 0v64a32 32 0 0 1-64 0z m117.76 345.92l-32 8.64a459.2 459.2 0 0 0-68.8 22.08 41.92 41.92 0 0 0-12.16 53.44 28.48 28.48 0 0 0 41.28 13.44 662.72 662.72 0 0 0 70.08-75.2l7.68-8.64 16-19.2z m-48.64-53.44l32-8.64c25.28-6.4 52.16-12.8 79.04-18.88l25.92-6.08 10.24-2.24a32 32 0 0 1 32 51.2c0 1.6-3.2 4.48-6.4 8l-16.96 21.12c-17.92 21.76-35.84 43.52-53.12 64l-7.68 8.96a542.08 542.08 0 0 1-84.48 87.68 92.48 92.48 0 0 1-132.16-37.76 105.92 105.92 0 0 1 34.56-137.28 387.84 387.84 0 0 1 87.04-30.08z" p-id="8059"></path></svg>