<?xml version="1.0" standalone="no"?><!DOCTYPE svg PUBLIC "-//W3C//DTD SVG 1.1//EN" "http://www.w3.org/Graphics/SVG/1.1/DTD/svg11.dtd"><svg t="1683375096438" class="icon" viewBox="0 0 1024 1024" version="1.1" xmlns="http://www.w3.org/2000/svg" p-id="8946" xmlns:xlink="http://www.w3.org/1999/xlink" width="200" height="200"><path d="M988.968421 401.515789v-2.694736-2.694737s0-2.694737-2.694737-2.694737l-2.694737-2.694737L557.810526 45.810526c-24.252632-24.252632-67.368421-24.252632-91.621052 0L43.115789 388.042105l-2.694736 2.694737-2.694737 2.694737V485.052632c0 10.778947 8.084211 18.863158 18.863158 18.863157h37.726315v423.073685c0 37.726316 29.642105 67.368421 67.368422 67.368421h339.536842c10.778947 0 18.863158-8.084211 18.863158-18.863158s-8.084211-18.863158-18.863158-18.863158H158.989474c-16.168421 0-29.642105-13.473684-29.642106-29.642105V490.442105c0-10.778947-8.084211-18.863158-18.863157-18.863158H72.757895v-59.28421L487.747368 75.452632c10.778947-10.778947 29.642105-10.778947 40.421053 0l417.684211 336.842105v59.28421h-37.726316c-10.778947 0-18.863158 8.084211-18.863158 18.863158v441.936842c0 16.168421-13.473684 29.642105-29.642105 29.642106h-88.926316c-134.736842 0-239.831579-132.042105-239.831579-247.91579V592.842105c0-10.778947-8.084211-18.863158-18.863158-18.863158s-18.863158 8.084211-18.863158 18.863158v121.263158C498.526316 843.452632 619.789474 997.052632 776.084211 997.052632h88.926315c37.726316 0 67.368421-29.642105 67.368421-67.368421V509.305263H970.105263c10.778947 0 18.863158-8.084211 18.863158-18.863158v-88.926316zM741.052632 140.126316c10.778947 0 18.863158-8.084211 18.863157-18.863158v-21.557895c0-16.168421 13.473684-29.642105 29.642106-29.642105h86.231579c16.168421 0 29.642105 13.473684 29.642105 29.642105v148.210526c0 10.778947 8.084211 18.863158 18.863158 18.863158s18.863158-8.084211 18.863158-18.863158V99.705263c0-37.726316-29.642105-67.368421-67.368421-67.368421h-86.231579c-37.726316 0-67.368421 29.642105-67.368421 67.368421v21.557895c0 10.778947 8.084211 18.863158 18.863158 18.863158z" fill="#101010" p-id="8947"></path><path d="M512 358.4c107.789474 86.231579 169.768421 177.852632 177.852632 266.778947 5.389474 61.978947-16.168421 121.263158-61.978948 172.463158-8.084211 8.084211-5.389474 18.863158 0 26.947369 2.694737 2.694737 8.084211 5.389474 13.473684 5.389473s10.778947-2.694737 13.473685-5.389473c53.894737-59.284211 78.147368-129.347368 72.757894-202.105263-8.084211-102.4-80.842105-207.494737-202.105263-304.505264h-2.694737s-2.694737 0-2.694736-2.694736h-2.694737-2.694737-2.694737-2.694737s-2.694737 0-2.694737 2.694736h-2.694737c-142.821053 115.873684-220.968421 272.168421-194.021052 396.126316 16.168421 80.842105 78.147368 140.126316 169.768421 164.378948h5.389474c8.084211 0 16.168421-5.389474 18.863157-13.473685 2.694737-10.778947-2.694737-21.557895-13.473684-24.252631-78.147368-21.557895-129.347368-70.063158-142.821052-137.431579-26.947368-99.705263 40.421053-239.831579 164.378947-344.926316z" fill="#101010" p-id="8948"></path></svg>