<?xml version="1.0" standalone="no"?><!DOCTYPE svg PUBLIC "-//W3C//DTD SVG 1.1//EN" "http://www.w3.org/Graphics/SVG/1.1/DTD/svg11.dtd"><svg t="1683374806216" class="icon" viewBox="0 0 1024 1024" version="1.1" xmlns="http://www.w3.org/2000/svg" p-id="5087" xmlns:xlink="http://www.w3.org/1999/xlink" width="200" height="200"><path d="M893.60324 640c-54.7 1-101.1 36.4-118.4 85.4-2.2 6.4-8.3 10.6-15 10.6h-551c-52.8 0-96.7-42.2-97.2-95-0.5-53.4 42.7-97 96-97h576c42.5 0 82.6-16.7 113-47 30.3-30.3 47-70.4 47-113s-16.7-82.6-47-113c-30.3-30.3-70.5-47-113-47H263.80324c-6.7 0-12.8-4.2-15-10.6-17.3-49.1-63.6-84.4-118.4-85.4C59.90324 126.7 0.50324 184.6 0.00324 255.1-0.49676 326.2 57.00324 384 128.00324 384c55.7 0 103.1-35.6 120.7-85.3 2.3-6.4 8.3-10.7 15.1-10.7h519c52.8 0 96.7 42.2 97.2 95 0.5 53.4-42.7 97-96 97H208.00324c-42.5 0-82.6 16.7-113 47-30.3 30.3-47 70.5-47 113s16.7 82.6 47 113c30.3 30.3 70.5 47 113 47h552.2c6.8 0 12.8 4.3 15.1 10.7 17.6 49.7 65 85.3 120.7 85.3 71 0 128.5-57.8 128-128.9-0.5-70.5-59.9-128.4-130.4-127.1zM128.00324 320c-35.3 0-64-28.7-64-64s28.7-64 64-64 64 28.7 64 64-28.7 64-64 64z m768 512c-35.3 0-64-28.7-64-64s28.7-64 64-64 64 28.7 64 64-28.7 64-64 64z" p-id="5088"></path></svg>