<?xml version="1.0" standalone="no"?><!DOCTYPE svg PUBLIC "-//W3C//DTD SVG 1.1//EN" "http://www.w3.org/Graphics/SVG/1.1/DTD/svg11.dtd"><svg t="1683382301138" class="icon" viewBox="0 0 1024 1024" version="1.1" xmlns="http://www.w3.org/2000/svg" p-id="3087" xmlns:xlink="http://www.w3.org/1999/xlink" width="200" height="200"><path d="M959.089641 353.243253c0.254803-6.446829-2.157129-12.707416-6.632047-17.34504-4.475941-4.649903-10.643408-7.269567-17.090237-7.269567l-100.916411 0c2.355651-22.467711 3.568269-45.12371 3.568269-67.665099 0-26.006304-1.6465-52.626591-4.869914-79.119989-2.179642-17.878183-17.368576-31.304983-35.363416-31.304983L225.252207 150.538575c-17.994839 0-33.18275 13.426801-35.362392 31.304983-3.223415 26.493397-4.869914 53.113685-4.869914 79.119989 0 22.541389 1.213641 45.198411 3.569292 67.665099l-100.916411 0c-6.446829 0-12.614296 2.620687-17.090237 7.269567-4.475941 4.637624-6.886851 10.899234-6.632047 17.34504 0.066515 1.821485 8.783037 174.778652 205.424626 216.724996 0.119727 0.186242 0.233314 0.38067 0.354064 0.566912 56.19179 87.042425 134.613884 140.136667 218.045061 148.654668l0 108.09388L345.301374 827.28371c-13.125949 0-23.74582 10.620895-23.74582 23.74582 0 13.124925 10.620895 23.744797 23.74582 23.744797l166.217672 0 166.217672 0c13.124925 0 23.744797-10.620895 23.744797-23.744797 0-13.124925-10.620895-23.74582-23.744797-23.74582L535.264866 827.28371 535.264866 719.189829c83.432201-8.516977 161.855318-61.61122 218.068597-148.654668 0.121773-0.188288 0.236384-0.384763 0.357134-0.573051C950.306604 528.006556 959.023126 355.064738 959.089641 353.243253zM115.313306 376.119263l80.065524 0c8.731872 47.974641 22.908756 93.594655 41.917692 135.017066C151.20577 477.872738 123.907031 412.05266 115.313306 376.119263zM511.520069 649.192615c-68.500117 0-133.128043-41.647539-181.940772-117.28931-33.275871-51.54905-56.395428-115.457592-66.853617-184.851055-4.2897-28.371164-6.470365-57.334823-6.470365-86.088704 0-12.916171 0.463558-26.01756 1.36816-39.189557l507.791142 0c0.904603 13.170974 1.36816 26.273387 1.36816 39.189557 0 28.754904-2.179642 57.71754-6.469342 86.088704 0 0 0 0 0 0.011256-10.458189 69.381184-33.577746 133.289726-66.830081 184.838775C644.647089 607.545076 580.020186 649.192615 511.520069 649.192615zM785.753851 511.129166c18.999726-41.420365 33.175587-87.038332 41.906435-135.009903l80.065524 0C899.114688 412.086429 871.802646 477.871715 785.753851 511.129166z" p-id="3088"></path><path d="M719.037357 269.740444c-6.307659 1.831718-9.925047 8.417717-8.092305 14.713097 11.038404 37.832653-17.159822 103.817484-43.200918 116.686582-5.866614 2.898003-8.278547 10.017144-5.379521 15.907295 2.064009 4.174066 6.284123 6.608511 10.643408 6.608511 1.785669 0 3.571339-0.393973 5.263887-1.228991 39.073924-19.315928 69.149916-97.706299 55.491849-144.606469C731.907479 271.526113 725.414601 267.862677 719.037357 269.740444z" p-id="3089"></path></svg>