<svg width="163" height="163" xmlns="http://www.w3.org/2000/svg" xmlns:xlink="http://www.w3.org/1999/xlink" overflow="hidden"><defs><clipPath id="clip0"><rect x="1683" y="1067" width="163" height="163"/></clipPath><clipPath id="clip1"><rect x="1706" y="1090" width="117" height="117"/></clipPath><clipPath id="clip2"><rect x="1706" y="1090" width="117" height="117"/></clipPath><clipPath id="clip3"><rect x="1706" y="1090" width="117" height="117"/></clipPath></defs><g clip-path="url(#clip0)" transform="translate(-1683 -1067)"><g clip-path="url(#clip1)"><g clip-path="url(#clip2)"><g clip-path="url(#clip3)"><path d="M1764.5 1106.25C1772.87 1106.24 1781.05 1108.72 1788 1113.38L1783.17 1119.93C1777.62 1116.29 1771.13 1114.36 1764.5 1114.38 1745.65 1114.38 1730.38 1129.65 1730.38 1148.5 1730.38 1167.35 1745.65 1182.62 1764.5 1182.62 1783.35 1182.62 1798.62 1167.35 1798.62 1148.5 1798.62 1148.2 1798.62 1147.89 1798.61 1147.59L1799.17 1148.5 1806.74 1147.7C1806.75 1147.96 1806.75 1148.23 1806.75 1148.5 1806.75 1171.83 1787.83 1190.75 1764.5 1190.75 1741.17 1190.75 1722.25 1171.83 1722.25 1148.5 1722.25 1125.17 1741.17 1106.25 1764.5 1106.25Z" fill="#50A6EA"/><path d="M1802.69 1151.75C1804.93 1151.75 1806.75 1149.93 1806.75 1147.69 1806.75 1145.44 1804.93 1143.62 1802.69 1143.62 1800.44 1143.62 1798.62 1145.44 1798.62 1147.69L1798.62 1148.55C1798.62 1150.42 1800.74 1151.75 1802.69 1151.75ZM1800.24 1129.33 1782.24 1128.74C1780.44 1128.68 1779.04 1127.18 1779.1 1125.39 1779.12 1124.68 1779.37 1124 1779.81 1123.46L1792.25 1108.04C1793.37 1106.65 1795.42 1106.43 1796.82 1107.55 1797.29 1107.94 1797.65 1108.44 1797.84 1109.02L1803.41 1125.02C1804 1126.71 1803.11 1128.56 1801.41 1129.15 1801.03 1129.29 1800.64 1129.35 1800.24 1129.33Z" fill="#50A6EA"/></g></g></g><path d="M1685.5 1096C1685.5 1081.36 1697.36 1069.5 1712 1069.5L1818 1069.5C1832.64 1069.5 1844.5 1081.36 1844.5 1096L1844.5 1202C1844.5 1216.64 1832.64 1228.5 1818 1228.5L1712 1228.5C1697.36 1228.5 1685.5 1216.64 1685.5 1202Z" stroke="#50A6EA" stroke-width="3" stroke-miterlimit="8" fill="none" fill-rule="evenodd"/></g></svg>