<?xml version="1.0" standalone="no"?><!DOCTYPE svg PUBLIC "-//W3C//DTD SVG 1.1//EN" "http://www.w3.org/Graphics/SVG/1.1/DTD/svg11.dtd"><svg t="1683375297808" class="icon" viewBox="0 0 1024 1024" version="1.1" xmlns="http://www.w3.org/2000/svg" p-id="15148" xmlns:xlink="http://www.w3.org/1999/xlink" width="200" height="200"><path d="M314.24 689.956571A318.08 318.08 0 0 1 201.142857 446.262857C201.142857 270.500571 343.094857 128 518.198857 128c175.104 0 317.037714 142.500571 317.037714 318.262857 0 88.045714-35.602286 167.734857-93.165714 225.371429v261.467428l-213.906286-105.874285-213.924571 105.874285V689.956571z m27.428571 20.736v178.230858l186.496-92.306286 186.477715 92.306286V696.100571A314.934857 314.934857 0 0 1 518.217143 764.525714a314.715429 314.715429 0 0 1-176.530286-53.833143z m176.530286 26.404572c159.926857 0 289.609143-130.194286 289.609143-290.834286S678.125714 155.428571 518.217143 155.428571C358.272 155.428571 228.571429 285.622857 228.571429 446.262857c0 160.658286 129.700571 290.834286 289.627428 290.834286z m0-92.306286c108.946286 0 197.302857-88.868571 197.302857-198.528 0-109.659429-88.356571-198.528-197.302857-198.528-108.946286 0-197.302857 88.868571-197.302857 198.528 0 109.677714 88.356571 198.528 197.302857 198.528z m0 18.285714c-119.076571 0-215.588571-97.060571-215.588571-216.813714 0-119.734857 96.512-216.813714 215.588571-216.813714 119.058286 0 215.588571 97.078857 215.588572 216.813714 0 119.753143-96.530286 216.813714-215.588572 216.813714z" fill="#000000" p-id="15149"></path></svg>