<?xml version="1.0" standalone="no"?><!DOCTYPE svg PUBLIC "-//W3C//DTD SVG 1.1//EN" "http://www.w3.org/Graphics/SVG/1.1/DTD/svg11.dtd"><svg t="1683375240606" class="icon" viewBox="0 0 1024 1024" version="1.1" xmlns="http://www.w3.org/2000/svg" p-id="13263" xmlns:xlink="http://www.w3.org/1999/xlink" width="200" height="200"><path d="M958.797487 848.12948 862.763271 680.84143c15.484669-6.195096 27.875884-18.594497 37.172621-30.984688l0 0 0 0c9.29776-15.484669 12.390191-34.075073 9.29776-52.66957l-12.399401-58.860573 0 0 40.274262-43.370787 3.102664-3.091408c12.390191-15.492856 18.585287-34.08019 18.585287-52.6665 0-18.59552-6.195096-37.179784-18.585287-49.572022l-43.37795-46.470381 12.399401-58.861596c3.092431-18.58631 0-37.172621-9.29776-52.665477-9.296737-15.481599-24.781406-27.874861-43.36874-34.069957l-58.861596-18.59552-18.593474-58.863642c-6.196119-18.584264-18.58631-34.06791-34.07098-43.36567l0 0c-15.494902-9.28855-34.078143-12.390191-52.665477-9.28855l-61.963237 9.28855 0 0-43.36874-40.274262-3.101641-3.093455C568.457338 20.973684 552.965505 14.776542 534.379195 14.776542c-18.588357 0-37.172621 6.198166-52.6665 18.58938l-43.367717 43.367717-3.104711 0-61.953004-12.390191c-18.588357-3.093455-37.182854 0-52.667523 9.29776-15.491833 9.28855-27.883047 24.781406-34.079166 43.367717l-18.587334 58.863642 0 0-58.861596 18.584264c-18.58631 6.193049-34.079166 18.58631-43.376926 34.082236-9.289574 15.490809-12.391215 34.07712-9.289574 52.661384l15.495926 58.863642-40.275285 43.367717 0 3.102664c-12.391215 15.486716-18.587334 30.977525-18.587334 49.563836 0 18.584264 6.196119 37.172621 18.587334 52.665477l0 0 40.275285 43.36874 0 0-9.298783 58.860573 0 0c-3.102664 18.588357 0 37.184901 9.298783 52.66957 9.286504 15.492856 21.677719 24.781406 37.170574 34.078143l-96.033193 167.286004c-6.204305 12.401448-3.102664 24.792663 9.28855 30.987758 0 6.191003 3.101641 6.191003 9.298783 6.191003l0 0 130.111337 0 65.057715 114.625644c6.197142 12.390191 21.679765 15.492856 30.978549 9.296737l9.29776-9.296737 99.128695-173.483146 18.594497 15.484669c15.482623 12.390191 34.072003 18.596544 49.564859 18.596544 18.58631 0 37.172621-6.205329 52.6665-18.596544l18.585287-15.484669 99.136881 173.483146 9.286504 9.296737c12.402471 6.196119 24.793686 3.093455 30.987758-9.296737l65.054645-114.625644 130.114406 0 0 0c3.092431 0 9.28855 0 12.390191-3.097548C961.890942 872.91191 964.993606 857.42724 958.797487 848.12948L958.797487 848.12948 958.797487 848.12948zM345.404216 934.869007 345.404216 934.869007l-52.665477-89.844238c-3.102664-6.195096-12.392238-12.390191-21.689998-12.390191L165.715741 832.634578l80.550571-142.503575 18.587334 6.195096 18.585287 58.861596c6.196119 18.58631 18.594497 34.079166 34.081213 43.376926 15.492856 9.28855 34.078143 12.390191 52.665477 6.195096l49.572022-12.398378L345.404216 934.869007 345.404216 934.869007 345.404216 934.869007zM467.389478 764.214279l-0.443092-0.443092c-6.496971-6.497994-10.630105-8.506744-15.196097-9.652847-3.487428-0.867764-6.873548-1.297552-10.314926-1.297552-3.37998 0-6.703679 0.411369-10.159384 1.258667l-89.979314 23.690562-28.658713-90.765213-0.249687-0.997724c-1.144056-4.564969-3.154853-8.700149-9.638521-15.182794-6.488785-6.487761-10.609639-8.495488-15.155165-9.629311l-1.013073-0.25378-89.264023-28.197202 18.874883-89.649809 0.152473-0.611937c1.808182-7.246031 1.428535-12.984732 0.731664-15.07637l-1.74576-5.238304 0-1.88186c-2.336208-4.583388-6.104021-10.237155-9.777691-15.747659l-1.170662-1.757017-1.865487-3.728928-58.455343-62.955844 62.197574-66.989717 0.446162-0.445138c6.491855-6.491855 8.502651-10.619872 9.641591-15.178701 1.735527-6.947226 1.735527-13.709233-0.002047-20.664645l-0.153496-0.61603-18.874883-89.664136 89.26607-28.186969 1.011027-0.252757c4.54041-1.131777 8.66024-3.139503 15.167444-9.640568 6.469342-6.479575 8.484232-10.611685 9.626241-15.171538l0.316202-1.258667L341.296665 102.231359l89.195461 18.777669 0.624217 0.156566c3.514033 0.880043 6.888897 1.307785 10.31902 1.307785 3.430122 0 6.807033-0.427742 10.323113-1.307785 4.573155-1.140986 8.697079-3.15076 15.186887-9.638521l3.532453-3.5345 66.98767-62.2119 66.998927 62.207807 0.448208 0.446162c6.483668 6.485715 10.615779 8.495488 15.178701 9.638521 3.500731 0.87288 6.882757 1.300622 10.32209 1.300622 3.433192 0 6.819313-0.427742 10.339486-1.307785l0.61603-0.152473 89.656973-18.871813 28.196179 89.255837 0.25378 1.00591c3.152806 12.608156 12.193717 21.649066 24.800849 24.801872l1.00284 0.25071 90.76726 28.661783-23.682375 89.976244c-1.693572 6.89606-1.680269 13.606903 0.044002 20.50808 1.13587 4.54041 3.14769 8.67252 9.640568 15.174608l0.438998 0.438998 62.207807 66.9846-62.207807 66.9846-0.438998 0.438998c-4.939499 4.943592-7.284917 8.520047-8.628518 11.957333l0 2.251274-1.01205 4.059456c-1.743714 6.986111-1.743714 10.604522 0 17.591657l0.152473 0.613984 18.87386 89.662089-89.254813 28.180829-0.998747 0.25378c-4.555759 1.137916-8.685823 3.15076-15.192004 9.645684-6.468318 6.479575-8.480138 10.609639-9.621125 15.170514l-0.315178 1.26276-29.089525 87.271646-89.48915-23.553439c-0.291642-0.070608-0.584308-0.143263-0.876973-0.207731l-17.08819 5.706979c-6.160303 2.057869-12.775978 5.730515-14.722306 7.405667l-3.426029 3.419889-66.9846 62.198597L467.389478 764.214279zM794.604938 832.634578 794.604938 832.634578c-9.28855 0-15.491833 3.103688-21.686928 12.390191l-52.665477 89.844238-80.541361-139.406027 46.470381 9.296737 0 0c18.58631 3.093455 37.173644 0 52.6665-6.195096l3.091408 0c15.493879-9.29776 27.885094-21.687952 34.082236-40.274262l0-3.101641 18.584264-58.861596 0 0 18.58631-6.195096 80.550571 142.503575L794.604938 832.635601 794.604938 832.634578 794.604938 832.634578zM676.882769 578.601884 676.882769 578.601884c37.171598-37.172621 58.862619-86.736457 58.862619-142.504598 0-55.758931-21.691021-105.331977-58.862619-142.504598s-86.744643-61.963237-142.503575-61.963237c-55.759955 0-105.331977 21.685905-142.504598 58.861596-37.174668 37.181831-58.861596 86.745666-58.861596 142.513808 0 55.758931 21.685905 105.322767 58.861596 142.501528l0 0c37.172621 37.176714 86.745666 58.865689 142.504598 58.865689C590.138126 640.568191 639.711172 615.781668 676.882769 578.601884L676.882769 578.601884 676.882769 578.601884zM645.906268 547.623335 645.906268 547.623335 645.906268 547.623335c-27.884071 27.883047-68.158333 46.473451-111.527073 46.473451-43.367717 0-83.643002-18.590404-111.529119-46.473451l0 0c-27.885094-27.882024-43.36567-68.157309-43.36567-108.423385 0-43.376926 18.58631-83.652212 46.470381-111.527073 27.874861-27.885094 68.150146-46.473451 111.518886-46.473451 43.37488 0 83.651188 18.588357 111.524003 46.473451 27.885094 27.874861 46.472428 68.150146 46.472428 111.527073C692.376649 479.466026 673.790338 519.741311 645.906268 547.623335L645.906268 547.623335 645.906268 547.623335 645.906268 547.623335zM645.906268 547.623335" fill="#272636" p-id="13264"></path></svg>