<?xml version="1.0" standalone="no"?><!DOCTYPE svg PUBLIC "-//W3C//DTD SVG 1.1//EN" "http://www.w3.org/Graphics/SVG/1.1/DTD/svg11.dtd"><svg class="icon" width="200px" height="200.00px" viewBox="0 0 1024 1024" version="1.1" xmlns="http://www.w3.org/2000/svg"><path fill="#333333" d="M843.854107 795.23069l23.606651 78.616522-85.744873-47.359634c-31.218002 7.887644-62.661132 15.70775-93.737918 15.70775-148.71095 0-265.754666-102.121865-265.754666-228.069369 0-125.72033 117.043716-228.155327 265.754666-228.155327 140.42217 0 265.531586 102.434997 265.531586 228.155327C953.436898 684.98582 906.683061 747.818867 843.854107 795.23069zM605.189426 509.328148c-18.741853 0-33.933857 15.285125-33.933857 34.137495 0 18.856463 15.192004 34.140565 33.933857 34.140565 18.741853 0 33.93488-15.285125 33.93488-34.140565C639.123282 524.613272 623.930255 509.328148 605.189426 509.328148zM777.721921 509.328148c-18.741853 0-33.933857 15.285125-33.933857 34.137495 0 18.856463 15.192004 34.140565 33.933857 34.140565 18.742876 0 33.93488-15.285125 33.93488-34.140565C811.656801 524.613272 796.464797 509.328148 777.721921 509.328148zM402.615731 617.907075c0 22.994714 3.542686 45.00296 9.650801 66.013483-9.727549 0.615007-19.457144 1.060145-29.254278 1.060145l0 0.005117-0.00614 0c-39.060621 0-70.353324-7.894807-109.429295-15.70161l-109.262496 55.085596 31.29168-94.539166C117.328195 574.745043 70.490447 503.872902 70.490447 417.528372c0-149.618623 140.731208-267.375583 312.589344-267.375583 153.702638 0 288.237727 94.163613 315.38297 220.799802-10.109242-1.149173-20.139689-1.824555-30.15888-1.824555C519.801686 369.129058 402.687362 480.585523 402.615731 617.907075zM278.111089 280.31222c-23.404036 0-42.37511 19.087731-42.37511 42.629913 0 23.545252 18.971074 42.63196 42.37511 42.63196 23.405059 0 42.377156-19.086707 42.377156-42.63196C320.488245 299.399951 301.516148 280.31222 278.111089 280.31222zM498.688833 279.898805c-23.404036 0-42.37511 19.087731-42.37511 42.632983 0 23.543206 18.971074 42.629913 42.37511 42.629913 23.405059 0 42.377156-19.086707 42.377156-42.629913C541.065989 298.985512 522.093892 279.898805 498.688833 279.898805z" /></svg>